<svg xmlns="http://www.w3.org/2000/svg" viewBox="0 0 19.35 19.39"><defs><style>.cls-1{fill:#fff;}</style></defs><g id="katman_2" data-name="katman 2"><g id="Layer_1" data-name="Layer 1"><g id="xe9dZ8"><path class="cls-1" d="M19.35,9.38a9.52,9.52,0,0,1-8.52,9.5A9.24,9.24,0,0,1,6,18.12a1.75,1.75,0,0,0-1.4-.07c-1.27.44-2.56.83-3.84,1.23-.22.08-.48.21-.68,0s0-.43,0-.63c.43-1.29.86-2.58,1.32-3.87a1.19,1.19,0,0,0-.08-1A9.44,9.44,0,0,1,8.19.16a9.55,9.55,0,0,1,11,7.91A7.8,7.8,0,0,1,19.35,9.38Zm-16.23,7A9.89,9.89,0,0,0,4.2,16a2.78,2.78,0,0,1,2.52.13,7,7,0,0,0,7.64-.83,7,7,0,0,0,2.79-7.06,7.36,7.36,0,0,0-5.68-6,7.48,7.48,0,0,0-7.73,3,7.33,7.33,0,0,0-.13,8.21,1.06,1.06,0,0,1,.12,1C3.52,15.08,3.35,15.65,3.12,16.35Z"/><path class="cls-1" d="M12.28,14.07a8.14,8.14,0,0,1-4.38-2A11.15,11.15,0,0,1,5.54,9.18a3.27,3.27,0,0,1-.43-2.41A2,2,0,0,1,7,5a.82.82,0,0,1,1,.47c.27.59.52,1.19.76,1.79a1,1,0,0,1-.34,1.1c-.33.32-.28.56,0,.88a8.16,8.16,0,0,0,2.09,1.84.66.66,0,0,0,1-.17c.66-.86.69-.85,1.67-.41l1.16.56a.87.87,0,0,1,.52,1.1A2.43,2.43,0,0,1,12.28,14.07Z"/></g></g></g></svg>