<?xml version="1.0" encoding="utf-8"?>
<svg version="1.1" id="cv__svg_1" xmlns="http://www.cv__svg_u.org/2000/svg" xmlns:xlink="http://www.cv__svg_u.org/1999/xlink" x="0px" y="0px"
	 viewBox="0 0 480 480" style="enable-background:new 0 0 480 480;" xml:space="preserve">
<style type="text/css">
	.cv__t{fill:url(#cv__svg_4);}
	.cv__svg_a{fill:url(#cv__svg_0);}
	.cv__svg_l{fill:url(#cv__svg_5);}
	.cv__svg_e{fill:url(#cv__svgkk);}
	.cv__svg_n{fill:url(#cv__svgka);}
	.cv__svg_u{fill:url(#cv__svgkl);}
	.cv__svg_x{fill:url(#cv__svgke);}
	.cv__svg_K{fill:url(#cv__svgkn);}
	.cv__svg_a{fill:url(#cv__svgku);}
	.cv__svg_l{fill:url(#cv__svgkx);}
	.cv__svg_e{fill:url(#cv__svgkK);}
	.cv__svg_n{fill:url(#cv__svgka);}
</style>
<g>
	
		<linearGradient id="cv__svg_4" gradientUnits="userSpaceOnUse" x1="-822.197" y1="537.875" x2="-763.165" y2="537.875" gradientTransform="matrix(8 0 0 -8 6587 4655)">
		<stop  offset="0" style="stop-color:#4761AC"/>
		<stop  offset="1" style="stop-color:#54C2EF"/>
	</linearGradient>
	<path class="cv__t" d="M144,360h16c4.4,0,8-3.6,8-8s-3.6-8-8-8h-16c-4.4,0-8,3.6-8,8S139.6,360,144,360z"/>
	
		<linearGradient id="cv__svg_0" gradientUnits="userSpaceOnUse" x1="-822.197" y1="537.875" x2="-763.165" y2="537.875" gradientTransform="matrix(8 0 0 -8 6587 4655)">
		<stop  offset="0" style="stop-color:#4761AC"/>
		<stop  offset="1" style="stop-color:#54C2EF"/>
	</linearGradient>
	<path class="cv__svg_a" d="M384,344H192c-4.4,0-8,3.6-8,8s3.6,8,8,8h192c4.4,0,8-3.6,8-8S388.4,344,384,344z"/>
</g>
<g>
	
		<linearGradient id="cv__svg_5" gradientUnits="userSpaceOnUse" x1="-822.197" y1="543.875" x2="-763.165" y2="543.875" gradientTransform="matrix(8 0 0 -8 6587 4655)">
		<stop  offset="0" style="stop-color:#4761AC"/>
		<stop  offset="1" style="stop-color:#54C2EF"/>
	</linearGradient>
	<path class="cv__svg_l" d="M144,312h16c4.4,0,8-3.6,8-8s-3.6-8-8-8h-16c-4.4,0-8,3.6-8,8S139.6,312,144,312z"/>
	
		<linearGradient id="cv__svgkk" gradientUnits="userSpaceOnUse" x1="-822.197" y1="543.875" x2="-763.165" y2="543.875" gradientTransform="matrix(8 0 0 -8 6587 4655)">
		<stop  offset="0" style="stop-color:#4761AC"/>
		<stop  offset="1" style="stop-color:#54C2EF"/>
	</linearGradient>
	<path class="cv__svg_e" d="M384,296H192c-4.4,0-8,3.6-8,8s3.6,8,8,8h192c4.4,0,8-3.6,8-8S388.4,296,384,296z"/>
	
		<linearGradient id="cv__svgka" gradientUnits="userSpaceOnUse" x1="-822.197" y1="549.875" x2="-763.165" y2="549.875" gradientTransform="matrix(8 0 0 -8 6587 4655)">
		<stop  offset="0" style="stop-color:#4761AC"/>
		<stop  offset="1" style="stop-color:#54C2EF"/>
	</linearGradient>
	<path class="cv__svg_n" d="M144,264h16c4.4,0,8-3.6,8-8s-3.6-8-8-8h-16c-4.4,0-8,3.6-8,8S139.6,264,144,264z"/>
	
		<linearGradient id="cv__svgkl" gradientUnits="userSpaceOnUse" x1="-822.197" y1="549.875" x2="-763.165" y2="549.875" gradientTransform="matrix(8 0 0 -8 6587 4655)">
		<stop  offset="0" style="stop-color:#4761AC"/>
		<stop  offset="1" style="stop-color:#54C2EF"/>
	</linearGradient>
	<path class="cv__svg_u" d="M384,248H192c-4.4,0-8,3.6-8,8s3.6,8,8,8h192c4.4,0,8-3.6,8-8S388.4,248,384,248z"/>
	
		<linearGradient id="cv__svgke" gradientUnits="userSpaceOnUse" x1="-822.197" y1="555.875" x2="-763.165" y2="555.875" gradientTransform="matrix(8 0 0 -8 6587 4655)">
		<stop  offset="0" style="stop-color:#4761AC"/>
		<stop  offset="1" style="stop-color:#54C2EF"/>
	</linearGradient>
	<path class="cv__svg_x" d="M144,216h16c4.4,0,8-3.6,8-8s-3.6-8-8-8h-16c-4.4,0-8,3.6-8,8S139.6,216,144,216z"/>
	
		<linearGradient id="cv__svgkn" gradientUnits="userSpaceOnUse" x1="-822.197" y1="555.875" x2="-763.165" y2="555.875" gradientTransform="matrix(8 0 0 -8 6587 4655)">
		<stop  offset="0" style="stop-color:#4761AC"/>
		<stop  offset="1" style="stop-color:#54C2EF"/>
	</linearGradient>
	<path class="cv__svg_K" d="M384,200H192c-4.4,0-8,3.6-8,8s3.6,8,8,8h192c4.4,0,8-3.6,8-8S388.4,200,384,200z"/>
	
		<linearGradient id="cv__svgku" gradientUnits="userSpaceOnUse" x1="-822.197" y1="561.875" x2="-763.165" y2="561.875" gradientTransform="matrix(8 0 0 -8 6587 4655)">
		<stop  offset="0" style="stop-color:#4761AC"/>
		<stop  offset="1" style="stop-color:#54C2EF"/>
	</linearGradient>
	<path class="cv__svg_a" d="M144,168h16c4.4,0,8-3.6,8-8s-3.6-8-8-8h-16c-4.4,0-8,3.6-8,8S139.6,168,144,168z"/>
	
		<linearGradient id="cv__svgkx" gradientUnits="userSpaceOnUse" x1="-822.197" y1="561.875" x2="-763.165" y2="561.875" gradientTransform="matrix(8 0 0 -8 6587 4655)">
		<stop  offset="0" style="stop-color:#4761AC"/>
		<stop  offset="1" style="stop-color:#54C2EF"/>
	</linearGradient>
	<path class="cv__svg_l" d="M184,160c0,4.4,3.6,8,8,8h192c4.4,0,8-3.6,8-8s-3.6-8-8-8H192C187.6,152,184,155.6,184,160z"/>
	
		<linearGradient id="cv__svgkK" gradientUnits="userSpaceOnUse" x1="-827.6855" y1="574.2763" x2="-764.1882" y2="522.1945" gradientTransform="matrix(8 0 0 -8 6587 4655)">
		<stop  offset="0" style="stop-color:#51A2E9"/>
		<stop  offset="1" style="stop-color:#A878A2"/>
	</linearGradient>
	<path class="cv__svg_e" d="M48,480h336c4.4,0,8-3.6,8-8v-40h40c4.4,0,8-3.6,8-8V120c0-0.2-0.1-0.3-0.1-0.5c0-0.7-0.2-1.4-0.4-2.1
		c-0.1-0.3-0.2-0.5-0.3-0.8c-0.4-0.9-0.9-1.7-1.6-2.3l-112-112c-0.7-0.7-1.5-1.2-2.3-1.6c-0.2-0.1-0.5-0.2-0.7-0.3
		c-0.7-0.2-1.4-0.4-2.1-0.4c-0.1,0-0.3-0.1-0.5-0.1H96c-4.4,0-8,3.6-8,8v24H48c-4.4,0-8,3.6-8,8v432C40,476.4,43.6,480,48,480
		L48,480z M412.7,112H328V27.3L412.7,112z M104,16h208v104c0,4.4,3.6,8,8,8h104v288H104V16z M56,48h32v376c0,4.4,3.6,8,8,8h280v32
		H56V48z"/>
	
		<linearGradient id="cv__svgka" gradientUnits="userSpaceOnUse" x1="-822.197" y1="568.875" x2="-763.165" y2="568.875" gradientTransform="matrix(8 0 0 -8 6587 4655)">
		<stop  offset="0" style="stop-color:#4761AC"/>
		<stop  offset="1" style="stop-color:#54C2EF"/>
	</linearGradient>
	<path class="cv__svg_n" d="M144,136h48c4.4,0,8-3.6,8-8V80c0-4.4-3.6-8-8-8h-48c-4.4,0-8,3.6-8,8v48C136,132.4,139.6,136,144,136z
		 M152,88h32v32h-32V88z"/>
</g>
</svg>
