<?xml version="1.0" encoding="utf-8"?>
<!-- Generator: Adobe Illustrator 24.1.2, SVG Export Plug-In . SVG Version: 6.00 Build 0)  -->
<svg version="1.1" id="twitter__svgkl" xmlns="http://www.twitter__svg_u.org/2000/svg" xmlns:xlink="http://www.twitter__svg_u.org/1999/xlink" x="0px" y="0px"
	 viewBox="0 0 10 10" style="enable-background:new 0 0 10 10;" xml:space="preserve">
<style type="text/css">
	.twitter__t{fill:none;}
	.twitter__svg_a{fill:url(#twitter__svg_4);}
</style>
<path class="twitter__t" d="M0,10V0h10v10H0z"/>
<linearGradient id="twitter__svg_4" gradientUnits="userSpaceOnUse" x1="-1218.6534" y1="92.1101" x2="-1217.8535" y2="92.9101" gradientTransform="matrix(10.005 0 0 8.2063 12192.7939 -754.9252)">
	<stop  offset="0" style="stop-color:#51A2E9"/>
	<stop  offset="1" style="stop-color:#A878A2"/>
</linearGradient>
<path class="twitter__svg_a" d="M6.8,1.1c-1.2,0-2.2,1-2.2,2.2c0,0.1,0,0.1,0,0.2C3.2,3.3,1.9,2.6,1,1.5c0-0.1-0.1-0.1-0.2-0.1s-0.1,0-0.2,0.1
	C0.5,1.9,0.4,2.2,0.4,2.6c0,0.5,0.2,0.9,0.4,1.3c-0.1,0-0.1,0-0.2-0.1c-0.1,0-0.1,0-0.2,0c0,0.1,0,0.2,0,0.2l0,0
	c0,0.7,0.4,1.4,0.9,1.8l0,0c-0.1,0-0.1,0-0.2,0.1C1.1,6,1,6,1.1,6.1c0.2,0.7,0.8,1.2,1.5,1.4C2,7.8,1.4,8,0.7,8C0.5,8,0.4,8,0.2,8
	C0.1,8,0,8.1,0,8.1c0,0.1,0,0.2,0.1,0.2c0.9,0.7,2,1,3.1,1c1.9,0,3.3-0.8,4.3-1.9S9,4.8,9,3.5c0-0.1,0-0.1,0-0.2
	c0.4-0.3,0.7-0.6,1-1c0.1-0.1,0-0.2,0-0.2C9.9,2,9.8,2,9.7,2S9.5,2.1,9.4,2.1c0.1-0.2,0.3-0.4,0.3-0.6c0-0.1,0-0.2-0.1-0.2
	c-0.1-0.1-0.2-0.1-0.2,0C9.1,1.5,8.7,1.6,8.3,1.7C7.9,1.3,7.4,1.1,6.8,1.1z M6.8,1.5c0.5,0,1,0.2,1.3,0.6c0,0,0.1,0.1,0.2,0.1
	C8.6,2.1,8.8,2,9.1,1.9C8.9,2.1,8.8,2.2,8.6,2.4c-0.1,0-0.1,0.1-0.1,0.2c0,0.1,0.1,0.2,0.2,0.1c0.2,0,0.4-0.1,0.6-0.2
	C9.1,2.8,8.9,2.9,8.7,3.1c-0.1,0-0.1,0.1-0.1,0.2c0,0.1,0,0.2,0,0.2c0,1.3-0.5,2.6-1.4,3.6s-2.3,1.8-4,1.8C2.4,8.9,1.7,8.7,1,8.4
	C1.8,8.3,2.6,8,3.2,7.6c0.1-0.1,0.1-0.1,0.1-0.2S3.2,7.2,3.1,7.2c-0.7,0-1.2-0.4-1.5-0.9l0,0c0.2,0,0.4,0,0.6-0.1
	c0.1,0,0.1-0.1,0.1-0.2S2.2,5.8,2.1,5.8C1.5,5.7,1,5.1,0.8,4.4c0.2,0,0.4,0.1,0.7,0.1c0.1,0,0.2-0.1,0.2-0.1c0-0.1,0-0.2-0.1-0.2
	C1.1,3.8,0.8,3.3,0.8,2.6c0-0.2,0.1-0.4,0.1-0.6c1,1.1,2.4,1.8,4,1.9c0.1,0,0.1,0,0.2-0.1c0,0,0.1-0.1,0-0.2C5.1,3.5,5,3.3,5,3.2
	C5.1,2.3,5.9,1.5,6.8,1.5z"/>
</svg>
