<?xml version="1.0" encoding="utf-8"?>
<svg version="1.1" id="Capa_1" xmlns="http://www.w3.org/2000/svg" xmlns:xlink="http://www.w3.org/1999/xlink" x="0px" y="0px"
	 viewBox="0 0 480 480" style="enable-background:new 0 0 480 480;" xml:space="preserve">
<style type="text/css">
	.st0{fill:url(#SVGID_1_);}
	.st1{fill:url(#SVGID_2_);}
	.st2{fill:url(#SVGID_3_);}
	.st3{fill:url(#SVGID_4_);}
	.st4{fill:url(#SVGID_5_);}
	.st5{fill:url(#SVGID_6_);}
	.st6{fill:url(#SVGID_7_);}
	.st7{fill:url(#SVGID_8_);}
	.st8{fill:url(#SVGID_9_);}
	.st9{fill:url(#SVGID_10_);}
	.st10{fill:url(#SVGID_11_);}
	.st11{fill:url(#SVGID_12_);}
</style>
<g>
	
		<linearGradient id="SVGID_1_" gradientUnits="userSpaceOnUse" x1="-822.197" y1="537.875" x2="-763.165" y2="537.875" gradientTransform="matrix(8 0 0 -8 6587 4655)">
		<stop  offset="0" style="stop-color:#4761AC"/>
		<stop  offset="1" style="stop-color:#54C2EF"/>
	</linearGradient>
	<path class="st0" d="M144,360h16c4.4,0,8-3.6,8-8s-3.6-8-8-8h-16c-4.4,0-8,3.6-8,8S139.6,360,144,360z"/>
	
		<linearGradient id="SVGID_2_" gradientUnits="userSpaceOnUse" x1="-822.197" y1="537.875" x2="-763.165" y2="537.875" gradientTransform="matrix(8 0 0 -8 6587 4655)">
		<stop  offset="0" style="stop-color:#4761AC"/>
		<stop  offset="1" style="stop-color:#54C2EF"/>
	</linearGradient>
	<path class="st1" d="M384,344H192c-4.4,0-8,3.6-8,8s3.6,8,8,8h192c4.4,0,8-3.6,8-8S388.4,344,384,344z"/>
</g>
<g>
	
		<linearGradient id="SVGID_3_" gradientUnits="userSpaceOnUse" x1="-822.197" y1="543.875" x2="-763.165" y2="543.875" gradientTransform="matrix(8 0 0 -8 6587 4655)">
		<stop  offset="0" style="stop-color:#4761AC"/>
		<stop  offset="1" style="stop-color:#54C2EF"/>
	</linearGradient>
	<path class="st2" d="M144,312h16c4.4,0,8-3.6,8-8s-3.6-8-8-8h-16c-4.4,0-8,3.6-8,8S139.6,312,144,312z"/>
	
		<linearGradient id="SVGID_4_" gradientUnits="userSpaceOnUse" x1="-822.197" y1="543.875" x2="-763.165" y2="543.875" gradientTransform="matrix(8 0 0 -8 6587 4655)">
		<stop  offset="0" style="stop-color:#4761AC"/>
		<stop  offset="1" style="stop-color:#54C2EF"/>
	</linearGradient>
	<path class="st3" d="M384,296H192c-4.4,0-8,3.6-8,8s3.6,8,8,8h192c4.4,0,8-3.6,8-8S388.4,296,384,296z"/>
	
		<linearGradient id="SVGID_5_" gradientUnits="userSpaceOnUse" x1="-822.197" y1="549.875" x2="-763.165" y2="549.875" gradientTransform="matrix(8 0 0 -8 6587 4655)">
		<stop  offset="0" style="stop-color:#4761AC"/>
		<stop  offset="1" style="stop-color:#54C2EF"/>
	</linearGradient>
	<path class="st4" d="M144,264h16c4.4,0,8-3.6,8-8s-3.6-8-8-8h-16c-4.4,0-8,3.6-8,8S139.6,264,144,264z"/>
	
		<linearGradient id="SVGID_6_" gradientUnits="userSpaceOnUse" x1="-822.197" y1="549.875" x2="-763.165" y2="549.875" gradientTransform="matrix(8 0 0 -8 6587 4655)">
		<stop  offset="0" style="stop-color:#4761AC"/>
		<stop  offset="1" style="stop-color:#54C2EF"/>
	</linearGradient>
	<path class="st5" d="M384,248H192c-4.4,0-8,3.6-8,8s3.6,8,8,8h192c4.4,0,8-3.6,8-8S388.4,248,384,248z"/>
	
		<linearGradient id="SVGID_7_" gradientUnits="userSpaceOnUse" x1="-822.197" y1="555.875" x2="-763.165" y2="555.875" gradientTransform="matrix(8 0 0 -8 6587 4655)">
		<stop  offset="0" style="stop-color:#4761AC"/>
		<stop  offset="1" style="stop-color:#54C2EF"/>
	</linearGradient>
	<path class="st6" d="M144,216h16c4.4,0,8-3.6,8-8s-3.6-8-8-8h-16c-4.4,0-8,3.6-8,8S139.6,216,144,216z"/>
	
		<linearGradient id="SVGID_8_" gradientUnits="userSpaceOnUse" x1="-822.197" y1="555.875" x2="-763.165" y2="555.875" gradientTransform="matrix(8 0 0 -8 6587 4655)">
		<stop  offset="0" style="stop-color:#4761AC"/>
		<stop  offset="1" style="stop-color:#54C2EF"/>
	</linearGradient>
	<path class="st7" d="M384,200H192c-4.4,0-8,3.6-8,8s3.6,8,8,8h192c4.4,0,8-3.6,8-8S388.4,200,384,200z"/>
	
		<linearGradient id="SVGID_9_" gradientUnits="userSpaceOnUse" x1="-822.197" y1="561.875" x2="-763.165" y2="561.875" gradientTransform="matrix(8 0 0 -8 6587 4655)">
		<stop  offset="0" style="stop-color:#4761AC"/>
		<stop  offset="1" style="stop-color:#54C2EF"/>
	</linearGradient>
	<path class="st8" d="M144,168h16c4.4,0,8-3.6,8-8s-3.6-8-8-8h-16c-4.4,0-8,3.6-8,8S139.6,168,144,168z"/>
	
		<linearGradient id="SVGID_10_" gradientUnits="userSpaceOnUse" x1="-822.197" y1="561.875" x2="-763.165" y2="561.875" gradientTransform="matrix(8 0 0 -8 6587 4655)">
		<stop  offset="0" style="stop-color:#4761AC"/>
		<stop  offset="1" style="stop-color:#54C2EF"/>
	</linearGradient>
	<path class="st9" d="M184,160c0,4.4,3.6,8,8,8h192c4.4,0,8-3.6,8-8s-3.6-8-8-8H192C187.6,152,184,155.6,184,160z"/>
	
		<linearGradient id="SVGID_11_" gradientUnits="userSpaceOnUse" x1="-827.6855" y1="574.2763" x2="-764.1882" y2="522.1945" gradientTransform="matrix(8 0 0 -8 6587 4655)">
		<stop  offset="0" style="stop-color:#51A2E9"/>
		<stop  offset="1" style="stop-color:#A878A2"/>
	</linearGradient>
	<path class="st10" d="M48,480h336c4.4,0,8-3.6,8-8v-40h40c4.4,0,8-3.6,8-8V120c0-0.2-0.1-0.3-0.1-0.5c0-0.7-0.2-1.4-0.4-2.1
		c-0.1-0.3-0.2-0.5-0.3-0.8c-0.4-0.9-0.9-1.7-1.6-2.3l-112-112c-0.7-0.7-1.5-1.2-2.3-1.6c-0.2-0.1-0.5-0.2-0.7-0.3
		c-0.7-0.2-1.4-0.4-2.1-0.4c-0.1,0-0.3-0.1-0.5-0.1H96c-4.4,0-8,3.6-8,8v24H48c-4.4,0-8,3.6-8,8v432C40,476.4,43.6,480,48,480
		L48,480z M412.7,112H328V27.3L412.7,112z M104,16h208v104c0,4.4,3.6,8,8,8h104v288H104V16z M56,48h32v376c0,4.4,3.6,8,8,8h280v32
		H56V48z"/>
	
		<linearGradient id="SVGID_12_" gradientUnits="userSpaceOnUse" x1="-822.197" y1="568.875" x2="-763.165" y2="568.875" gradientTransform="matrix(8 0 0 -8 6587 4655)">
		<stop  offset="0" style="stop-color:#4761AC"/>
		<stop  offset="1" style="stop-color:#54C2EF"/>
	</linearGradient>
	<path class="st11" d="M144,136h48c4.4,0,8-3.6,8-8V80c0-4.4-3.6-8-8-8h-48c-4.4,0-8,3.6-8,8v48C136,132.4,139.6,136,144,136z
		 M152,88h32v32h-32V88z"/>
</g>
</svg>
