<?xml version="1.0" encoding="utf-8"?>
<!-- Generator: Adobe Illustrator 24.1.2, SVG Export Plug-In . SVG Version: 6.00 Build 0)  -->
<svg version="1.1" id="Capa_1" xmlns="http://www.w3.org/2000/svg" xmlns:xlink="http://www.w3.org/1999/xlink" x="0px" y="0px"
	 viewBox="0 0 512 512" style="enable-background:new 0 0 512 512;" xml:space="preserve">
<style type="text/css">
	.st0{fill:url(#SVGID_1_);}
	.st1{fill:url(#SVGID_2_);}
	.st2{fill:url(#SVGID_3_);}
	.st3{fill:url(#SVGID_4_);}
	.st4{fill:url(#SVGID_5_);}
</style>
<g>
	<g>
		<linearGradient id="SVGID_1_" gradientUnits="userSpaceOnUse" x1="179.763" y1="127.7062" x2="492.5598" y2="384.2931">
			<stop  offset="0" style="stop-color:#51A2E9"/>
			<stop  offset="1" style="stop-color:#A878A2"/>
		</linearGradient>
		<path class="st0" d="M488.5,136.3H183.9c-13,0-23.5,10.6-23.5,23.5v192.4c0,13,10.6,23.5,23.5,23.5h304.6
			c13,0,23.5-10.6,23.5-23.5V159.8C512,146.8,501.4,136.3,488.5,136.3z M183.9,151.3h304.6c3.6,0,6.6,2.2,7.9,5.3L364.8,258.5
			c-16.9,13.1-40.4,13.1-57.3,0L175.9,156.6C177.2,153.5,180.3,151.3,183.9,151.3z M497,336.9l-84.1-65.1c-3.3-2.5-8-1.9-10.5,1.3
			s-1.9,8,1.3,10.5l92.7,71.7c-1.3,3.1-4.3,5.3-7.9,5.3H183.9c-3.6,0-6.6-2.2-7.9-5.3l92.7-71.7c3.3-2.5,3.9-7.2,1.3-10.5
			s-7.2-3.9-10.5-1.3l-84.1,65.1V175.1l123,95.2c11.1,8.6,24.5,12.9,37.8,12.9s26.7-4.3,37.8-12.9l123-95.2V336.9z"/>
	</g>
</g>
<g>
	<g>
		<linearGradient id="SVGID_2_" gradientUnits="userSpaceOnUse" x1="53.1114" y1="251.707" x2="122.2106" y2="308.389">
			<stop  offset="0" style="stop-color:#51A2E9"/>
			<stop  offset="1" style="stop-color:#A878A2"/>
		</linearGradient>
		<path class="st1" d="M135.8,272.5H39.6c-4.1,0-7.5,3.4-7.5,7.5s3.4,7.5,7.5,7.5h96.2c4.1,0,7.5-3.4,7.5-7.5
			S139.9,272.5,135.8,272.5z"/>
	</g>
</g>
<g>
	<g>
		<linearGradient id="SVGID_3_" gradientUnits="userSpaceOnUse" x1="27.496" y1="283.9267" x2="115.762" y2="356.3313">
			<stop  offset="0" style="stop-color:#51A2E9"/>
			<stop  offset="1" style="stop-color:#A878A2"/>
		</linearGradient>
		<path class="st2" d="M135.8,312.6H7.5c-4.1,0-7.5,3.4-7.5,7.5s3.4,7.5,7.5,7.5h128.3c4.1,0,7.5-3.4,7.5-7.5
			S139.9,312.6,135.8,312.6z"/>
	</g>
</g>
<g>
	<g>
		<linearGradient id="SVGID_4_" gradientUnits="userSpaceOnUse" x1="78.7277" y1="219.4894" x2="128.6595" y2="260.4484">
			<stop  offset="0" style="stop-color:#51A2E9"/>
			<stop  offset="1" style="stop-color:#A878A2"/>
		</linearGradient>
		<path class="st3" d="M135.8,232.5H71.6c-4.1,0-7.5,3.4-7.5,7.5s3.4,7.5,7.5,7.5h64.1c4.1,0,7.5-3.4,7.5-7.5
			C143.3,235.8,139.9,232.5,135.8,232.5z"/>
	</g>
</g>
<g>
	<g>
		<linearGradient id="SVGID_5_" gradientUnits="userSpaceOnUse" x1="104.343" y1="187.2688" x2="135.108" y2="212.5052">
			<stop  offset="0" style="stop-color:#51A2E9"/>
			<stop  offset="1" style="stop-color:#A878A2"/>
		</linearGradient>
		<path class="st4" d="M135.8,192.4h-32.1c-4.1,0-7.5,3.4-7.5,7.5s3.4,7.5,7.5,7.5h32.1c4.1,0,7.5-3.4,7.5-7.5
			S139.9,192.4,135.8,192.4z"/>
	</g>
</g>
</svg>
